<mxfile host="65bd71144e">
    <diagram id="8FS2FbvrPpp0F5J38_Xr" name="Page-1">
        <mxGraphModel dx="2332" dy="1493" grid="1" gridSize="10" guides="1" tooltips="1" connect="1" arrows="1" fold="1" page="1" pageScale="1" pageWidth="850" pageHeight="1100" math="0" shadow="0">
            <root>
                <mxCell id="0"/>
                <mxCell id="1" parent="0"/>
                <mxCell id="2" value="" style="rounded=1;whiteSpace=wrap;html=1;" parent="1" vertex="1">
                    <mxGeometry x="-720" y="680" width="1260" height="770" as="geometry"/>
                </mxCell>
                <mxCell id="3" value="Subscription" style="verticalLabelPosition=bottom;html=1;verticalAlign=top;align=center;strokeColor=none;fillColor=#00BEF2;shape=mxgraph.azure.azure_subscription;" parent="1" vertex="1">
                    <mxGeometry x="-670" y="690" width="50" height="35" as="geometry"/>
                </mxCell>
                <mxCell id="4" value="" style="whiteSpace=wrap;html=1;" parent="1" vertex="1">
                    <mxGeometry x="-620" y="790" width="750" height="630" as="geometry"/>
                </mxCell>
                <mxCell id="5" value="aks-vnet" style="aspect=fixed;html=1;points=[];align=center;image;fontSize=12;image=img/lib/azure2/networking/Virtual_Networks.svg;" parent="1" vertex="1">
                    <mxGeometry x="-647" y="770" width="67" height="40" as="geometry"/>
                </mxCell>
                <mxCell id="34" value="" style="whiteSpace=wrap;html=1;" parent="1" vertex="1">
                    <mxGeometry x="-565.1" y="1220" width="635.1" height="160" as="geometry"/>
                </mxCell>
                <mxCell id="35" value="aks-subnet" style="aspect=fixed;html=1;points=[];align=center;image;fontSize=12;image=img/lib/azure2/networking/Virtual_Networks_Classic.svg;" parent="1" vertex="1">
                    <mxGeometry x="-597" y="1200" width="67" height="40" as="geometry"/>
                </mxCell>
                <mxCell id="28" value="aks-pls&lt;br&gt;(Private Link Service)" style="aspect=fixed;html=1;points=[];align=center;image;fontSize=12;image=img/lib/azure2/networking/Private_Link.svg;" parent="1" vertex="1">
                    <mxGeometry x="-50" y="1271.59" width="62" height="56.83" as="geometry"/>
                </mxCell>
                <mxCell id="38" value="" style="rounded=0;whiteSpace=wrap;html=1;" parent="1" vertex="1">
                    <mxGeometry x="230" y="1190" width="198" height="210" as="geometry"/>
                </mxCell>
                <mxCell id="37" value="Managed Private Endpoint" style="aspect=fixed;html=1;points=[];align=center;image;fontSize=12;image=img/lib/azure2/networking/Private_Endpoint.svg;" parent="1" vertex="1">
                    <mxGeometry x="278" y="1260" width="72" height="66" as="geometry"/>
                </mxCell>
                <mxCell id="33" style="edgeStyle=none;html=1;" parent="1" source="37" target="28" edge="1">
                    <mxGeometry relative="1" as="geometry">
                        <mxPoint x="400" y="1160.0984457464333" as="sourcePoint"/>
                    </mxGeometry>
                </mxCell>
                <mxCell id="36" value="Azure Managed Grafana" style="aspect=fixed;html=1;points=[];align=center;image;fontSize=12;image=img/lib/azure2/other/Grafana.svg;" parent="1" vertex="1">
                    <mxGeometry x="190" y="1166" width="68" height="52.800000000000004" as="geometry"/>
                </mxCell>
                <mxCell id="39" value="Azure Monitor" style="aspect=fixed;html=1;points=[];align=center;image;fontSize=12;image=img/lib/azure2/management_governance/Monitor.svg;" parent="1" vertex="1">
                    <mxGeometry x="258" y="920" width="64" height="64" as="geometry"/>
                </mxCell>
                <mxCell id="7" value="" style="whiteSpace=wrap;html=1;" parent="1" vertex="1">
                    <mxGeometry x="-565.1" y="860" width="635.1" height="310" as="geometry"/>
                </mxCell>
                <mxCell id="24" value="k8s-internal&lt;br&gt;(ILB)" style="aspect=fixed;html=1;points=[];align=center;image;fontSize=12;image=img/lib/azure2/networking/Load_Balancers.svg;" parent="1" vertex="1">
                    <mxGeometry x="-50" y="1000" width="62" height="62" as="geometry"/>
                </mxCell>
                <mxCell id="9" value="" style="whiteSpace=wrap;html=1;" parent="1" vertex="1">
                    <mxGeometry x="-489" y="928.33" width="342" height="213.75" as="geometry"/>
                </mxCell>
                <mxCell id="10" value="AKS" style="aspect=fixed;html=1;points=[];align=center;image;fontSize=12;image=img/lib/azure2/containers/Kubernetes_Services.svg;" parent="1" vertex="1">
                    <mxGeometry x="-519" y="892.0833333333334" width="68" height="60" as="geometry"/>
                </mxCell>
                <mxCell id="13" value="&lt;br&gt;&lt;br&gt;&lt;br&gt;&lt;br&gt;&lt;br&gt;Loki (pod)" style="sketch=0;html=1;dashed=0;whitespace=wrap;fillColor=#2875E2;strokeColor=#ffffff;points=[[0.005,0.63,0],[0.1,0.2,0],[0.9,0.2,0],[0.5,0,0],[0.995,0.63,0],[0.72,0.99,0],[0.5,1,0],[0.28,0.99,0]];shape=mxgraph.kubernetes.icon;prIcon=pod" parent="1" vertex="1">
                    <mxGeometry x="-400" y="1000" width="50" height="48" as="geometry"/>
                </mxCell>
                <mxCell id="20" style="edgeStyle=none;html=1;" parent="1" source="21" target="13" edge="1">
                    <mxGeometry relative="1" as="geometry">
                        <mxPoint x="-220.25000000000023" y="1082.2399999999998" as="targetPoint"/>
                    </mxGeometry>
                </mxCell>
                <mxCell id="21" value="&lt;br&gt;&lt;br&gt;&lt;br&gt;&lt;br&gt;&lt;br&gt;Loki (svc)" style="sketch=0;html=1;dashed=0;whitespace=wrap;fillColor=#2875E2;strokeColor=#ffffff;points=[[0.005,0.63,0],[0.1,0.2,0],[0.9,0.2,0],[0.5,0,0],[0.995,0.63,0],[0.72,0.99,0],[0.5,1,0],[0.28,0.99,0]];shape=mxgraph.kubernetes.icon;prIcon=svc" parent="1" vertex="1">
                    <mxGeometry x="-249" y="1000" width="50" height="48" as="geometry"/>
                </mxCell>
                <mxCell id="23" style="edgeStyle=none;html=1;entryX=0.995;entryY=0.63;entryDx=0;entryDy=0;entryPerimeter=0;" parent="1" source="24" target="21" edge="1">
                    <mxGeometry relative="1" as="geometry">
                        <mxPoint x="-30.25" y="1070.2400000000002" as="targetPoint"/>
                    </mxGeometry>
                </mxCell>
                <mxCell id="27" style="edgeStyle=none;html=1;" parent="1" source="28" target="24" edge="1">
                    <mxGeometry relative="1" as="geometry"/>
                </mxCell>
                <mxCell id="22" value="aks-subnet" style="aspect=fixed;html=1;points=[];align=center;image;fontSize=12;image=img/lib/azure2/networking/Virtual_Networks_Classic.svg;" parent="1" vertex="1">
                    <mxGeometry x="-597" y="840" width="67" height="40" as="geometry"/>
                </mxCell>
            </root>
        </mxGraphModel>
    </diagram>
</mxfile>